<!-- Created by L3D for Freifunk Bodense (https://ffbsee.de/) -->
<!-- Lizenz: CC-BY-SA "Lilian Roller - Freifunk Bodensee-->
<svg xmlns="http://www.w3.org/2000/svg" xmlns:xlink="http://www.w3.org/1999/xlink" width="4535.433" height="1133.858" viewBox="0 0 429.268 107.147"><style><![CDATA[.B{fill-rule:evenodd}.C{stroke:#000}.D{fill:#fff}.E{stroke-width:.051}.F{stroke-width:.133}]]></style><path d="M255.843 64.423s-25.7-23.582-31.05-27.302-14.478-7.44-19.204-11.8-5.35-5.552-6.803-5.552-2.345.744-2.508 1.374-1.965-1.202-1.965-1.202-1.338.744-2.176.86-2.467-.86-3.36-.63-2.566 1.03-2.566 1.03-.23-.86-1.793-.515-8.15 2.518-9.094 3.72-6.236 4.522-8.97 5.495c-12.057 4.777-41.73 16.704-47.232 24.455-4.982 8.185 27.828 20.6 27.828 20.6l113.7 4.808-4.567-14.653zM89.63 41.517s-18.5-15.053-29.217-21.775C54.76 16.2 45.638 12.13 40.816 7.68S35.358 2 33.874 2s-2.392.76-2.56 1.405-2.005-1.23-2.005-1.23-1.365.76-2.22.878-2.517-.878-3.43-.644-2.62 1.054-2.62 1.054-.234-.878-1.83-.527-8.317 2.576-9.28 3.806-6.36 4.628-9.15 5.622-6.215.937-9.5 3.455 7.942 9.438 2.858 17.8-13.148 24.817-13.148 24.817l139.246 8.16-3.956-18.23z" fill="#bebebe" class="B"/><path d="M211.312 65.96l-25.448-18.396c-.5-.387-1.665-1.05-2.695-2.13s-.98-2.1-1.98-2.765-2.66-.912-3.547-1.272-2.637-1.603-4.05-2.046-2.823-.442-3.764-.608-2.8-1.382-3.85-1.078-2.37 1.19-2.6 1.382c-11.452-1.583-16.278-15.963-24.837-8.28-.098-.02-.627-.293-.627-.293s-3.26.665-4.376.45-2.874-.137-3.534.645-3.71 3.792-4.625 4.26-23.277 18.846-27.54 20.774c-1.328.6-23.515-15.73-31.79-15.94-7.033-.18-19.603 14.278-26.468 13.768-3.108-.23-18.524-27.12-35.47-23.014-12.186 2.954-14.545 7.69-16.416 8.6S-4.333 63.013-1.6 63.56c23.752 4.782 89.84 6.238 89.84 6.238l-6.812.01 106.503 1.173z" fill="#8e8e8e" class="B"/><path d="M449.72 93.327l1.7-50.21c-6.473-4.12-2.386-8.555-24.294-4.165-5.147.667-11.637-9.4-15.704-10.144-3.574.79-11.29 3.584-14.665 3.5-4.724.044-9.287-3.97-9.287-3.97l.27.377s-2.22-.868-2.84-1.267-1.074-.856-1.32-.936-1.1-.434-1.1-.434-.448.228-.63.434-.34.8-.34.8-.594 0-1.026-.217-1.094-.776-1.094-.776-.877.228-1.243.445-.385.32-.385.32l-.146-.206s-1.756.32-2.08.548-2.07 1.53-2.948 1.667-1.475-.148-1.475-.148l-46.038 29.873c12.76-12.69-39.735-44.754-54.944-39.325-78.227 65.383 23.615 38.574 23.615 38.574l-4.696 36.913z" fill="#bebebe" class="B"/><path d="M366.14 48.89c-1.084-1.078-32.8-8.887-37.723-13.78-7.646-2.794-4.678 8.7-22.673 4.755-17.45 6.627-15.288 7.747-37.036-2.522-.964.47-2.875.92-4.27 1.525s-3.434-6.02-7.71-5.59-11.576 3.362-14.782 4.027-12.086 6.373-12.738 7.272-4.293 6.45-6.263 7.35S211 58.26 208.206 59.082s-15.4 1.173-15.4 1.173L191.69 71.32l142.844 1.173c60.22-3.022 80.463-15.482 31.605-23.6z" fill="#8e8e8e" class="B"/><g fill="#525252" class="B"><path d="M267.228 62.103s-41.584-3.847-51.484-7.906c-8.417-3.45-10.216-9.05-13.4-8.503s-5.35 2.975-7.204 2.614-3.686-1.976-5.7-1.276-5.723 1.58-7.644.596-3.222-3.91-5.857-3.305-5.337 2.35-9.135 2.294-5.697-1.433-8.6-.465-4.13 2.187-5.6 1.733-.438-1.98-3.742.334-15.37 8.477-15.37 8.477l-9.708 5.985 9.762 3.2 64.54 1.134 38.678 5.768z"/><path d="M129.425 60.012s-15.96-5.914-22.122-7.406-37.633 8.908-42.624 9.902-37.04-5.124-42.447-4.793-39.2-12.68-39.2-12.68l2.468 30.95 156.057 8.343c-.003-.22-12.12-24.317-12.12-24.317zM378.697 49.53c-1.74-.442-3.475-.442-4.634-.608s-3.45-1.382-4.74-1.078-2.918 1.2-3.188 1.382-2.33-.07-3.467-.695-2.977-2.033-4.255-2.443l-6.517-2.385c-2.315-.606-5.713-1.173-5.713-1.173s-.46-.4-.775-.567-5.133-.8-5.83-.86l-4.02-.156c-.12-.02-.773-.293-.773-.293s-4.014.665-5.388.45-3.54-.137-4.35.645-4.567 3.792-5.694 4.26-3.362.92-4.994 1.525-4.017 3.362-9.02 3.792-17.93-2.893-21.68-2.23-9.746 3.245-10.5 4.144-5.022 6.45-7.325 7.35-13.97 6.333-17.236 7.154-18 1.173-18 1.173L229.27 79.98l197.527 2.144c-9.177-41.037-25.058-43.432-48.1-32.598z"/></g><path d="M238.55 68.39c15.944-12.265 42.16-13.645 55.652-8.74s32.042 1.993 32.042 1.993 38.02-18.397 42.927-17.784 19 5.52 24.53 6.132 12.878-7.972 20.237-11.038 33.728-4.906 33.728-4.906l6.132 42.314L304.78 100.9l-70.523-17.17z" stroke-width=".101" class="B C"/><path d="M-10.15 64.888c50.347 8.065 131.103 3.45 154.507-2.624 25.482-6.613 111.077-2.267 111.077-2.267-21.618 9.84-17.54 12.894-16.34 13.58 12.504 7.17 48.753 8.585 65.923 4.906s111.303-17.17 135.22-11.652-11.652 50.9-11.652 50.9l-440.307 3.68z" fill="#009ee0" class="B"/><g transform="matrix(1.311941 0 0 1.155055 60.421631 -561.41822)"><use xlink:href="#B" class="B C D E"/><animateMotion repeatCount="indefinite" values="0,0; -150,12; -300,13" dur="210s"/><g class="B"><use xlink:href="#C" class="C D F"/><use xlink:href="#D"/></g></g><g transform="matrix(.804789 0 0 .804789 71.06256 -323.4625)"><path d="M27.637 430.017c2.277-.783 9.073-1.992 11.136-1.886s8.717.534 10.638.818 13.307 2.633 16.01 3.522 12.204 4.163 14.837 5.764l4.554 2.74s1.53-3.77 2.064-3.985 4.056.712 4.056.712 2.1.178 2.42.925.605 7.97.498 8.3-.178.64-.178.64 2.42 2.455 2.882 3.095 1.14 1.85 1.14 1.85l5.372.07c.534.036 5.55 1.067 5.48 1.28s-8.895 1.2-9.073 1.14-.39-.498-.712-.463.32 1.14.036 2.313-1.2 2.277-2.24 3.024-3.344 1.78-3.843 1.992-.854.285-.818.534.96-.427 1.28-.463.676.39.712.89-.107 6.618-.107 6.618-5.586.89-5.835.818-.57-.178-.854-.534-2.455-5.55-2.455-5.55-6.938 1.245-8.468 1.352-11.457.64-12.95.498-15.797-2.313-18.68-3.238-12.915-4.625-16.65-7.116c-5.64-4.382-12.257-8.3-11.913-17.024 2.012-4.902 7.29-7.088 11.664-8.628z" fill="#efefef" stroke-width=".542" class="B C"/><animateMotion dur="180s" values="350,-10; 50,10; -2,10;-200,-25" repeatCount="indefinite"/><g class="B"><path d="M68.518 464.35s-1.494 6.547-1.992 6.547-14.66.712-15.726-.427-1.14-7.614-1.14-7.614.427-.996 1.92-1.067 16.936 2.562 16.936 2.562z" fill="#686868" stroke-width=".228" class="C"/><path d="M17.303 436.263c.906-.956 1.71-1.208 2.315-.906s1.66 1.107 1.81 2.516.1 3.145-.58 4.403-1.41 1.862-2.24 1.912-1.912-1.03-2.19-1.71c-.904-4.168-1.19-2.97.88-6.214z" fill="url(#linearGradient6910)"/></g></g><g transform="matrix(1.834202 0 0 1.614862 39.208938 -786.1375)"><use xlink:href="#B" class="B C D E"/><animateMotion dur="230s" values="100,0; -100,0; -300,15" repeatCount="indefinite"/><g class="B"><use xlink:href="#C" class="C D F"/><use xlink:href="#D"/></g></g><g transform="matrix(2.919364 0 0 2.919364 -428.32499 -1483.9865)"><path d="M210.875 532.875l2.516 7.89" fill="none" stroke-width=".1" class="C"/><animateMotion dur="65s" values="50,-13; 0,-8;-10,18; -45,42" repeatCount="indefinite"/><g class="B"><path d="M214.4 539.7c-.72-.437-3.016-5.61-3.234-6.187l-.22-.61 2.156 6.812z" stroke-width=".05" class="C D"/><use xlink:href="#E"/><use xlink:href="#F" class="C D E"/></g></g><g transform="matrix(1.834202 0 0 1.614862 51.473747 -782.45806)"><use xlink:href="#B" class="B C D E"/><animateMotion repeatCount="indefinite" values="-100,-1; -200,-5; -340,0; -340,50; 30,50; -100,-1" dur="233s"/><g class="B"><use xlink:href="#C" class="C D F"/><use xlink:href="#D"/></g></g><g transform="matrix(1.516101 0 0 1.3348 24.36697 -648.81105)"><use xlink:href="#B" class="B C D E"/><animateMotion dur="111s" values="-80,0; -160,9; -280,3" repeatCount="indefinite"/><g class="B"><use xlink:href="#C" class="C D F"/><use xlink:href="#D"/></g></g><g transform="matrix(2.919364 0 0 2.919364 -206.94519 -1479.6938)"><path d="M210.875 532.875l2.516 7.89" fill="none" stroke-width=".1" class="C"/><animateMotion repeatCount="indefinite" values="20,-20; -45,42" dur="50s"/><g class="B"><path d="M214.4 539.7c-.72-.437-3.016-5.61-3.234-6.187l-.22-.61 2.156 6.812z" stroke-width=".05" class="C D"/><use xlink:href="#E"/><use xlink:href="#F" class="C D E"/></g></g><g transform="matrix(1.834202 0 0 1.614862 39.208938 -786.1375)"><use xlink:href="#B" class="B C D E"/><animateMotion dur="200s" values="-200,10; -370,-6; -390,80; -100,30; -200,10" repeatCount="indefinite"/><g class="B"><use xlink:href="#C" class="C D F"/><use xlink:href="#D"/></g></g><defs ><path id="B" d="M136.14 531.342l-1.268 9.653-.173 2.248 3.37-.5s-1.383-1.383-1.844-3.688-.087-7.723-.087-7.723z"/><path id="C" d="M138.164 543.06l-2.086-12.49s1.234 4.614 2.057 6.23l2.762 5.348-2.88.088"/><path id="D" d="M143.56 543.308l-.087.5-4.64.403-3.256-.144-.807-.75 5.62-.663.663.346 2.046-.202z"/><path id="E" d="M211.767 540.35c.884.155 2.364-.177 2.563-.1s.32.265.32.265l.83.077s.177.177.133.298-.232.276-.387.343-2.41.177-2.75-.077-.707-.796-.707-.796z"/><path id="F" d="M212.664 540.26l-.487.232s-.877-.897-1.186-2.367-.05-4.9-.05-4.9c.08 2.794.293 4.7 1.722 7.025z"/></defs></svg>
